Coordinates
version=1
nRows=14
nColumns=28
inDegrees=yes

Units are S.I. units (second, meters, Newtons, ...)
Angles are in degrees.

endheader
time	pelvis_tilt	pelvis_list	pelvis_rotation	pelvis_tx	pelvis_ty	pelvis_tz	hip_flexion_r	hip_adduction_r	hip_rotation_r	knee_angle_r	ankle_angle_r	subtalar_angle_r	mtp_angle_r	hip_flexion_l	hip_adduction_l	hip_rotation_l	knee_angle_l	socket_flexion	socket_adduction	socket_rotation	socket_tx	socket_ty	socket_tz	foot_flex	lumbar_extension	lumbar_bending	lumbar_rotation
      0.27083333	      0.29593029	      5.55216509	      1.34324769	     -0.41255164	      0.98410752	      0.23303030	     14.44372485	    -10.25667806	      2.05858814	    -62.95395527	    -12.77710210	    -12.20040358	     17.72970330	      7.62751918	      5.16469011	      5.33847377	    -18.25213392	      0.00000000	      0.00000000	      0.00000000	      0.00000000	     -0.00921741	      0.00000000	      4.13336530	     -8.70161380	     -7.61655652	     -4.76129596
      0.27500000	      0.35792287	      5.32639485	      1.37599794	     -0.40709359	      0.98512245	      0.23246158	     15.10272005	     -9.97764184	      1.98590397	    -62.90628437	    -11.77480358	    -12.63260134	     17.57037417	      7.06828615	      4.94113165	      5.43479540	    -17.99771861	      0.00000000	      0.00000000	      0.00000000	      0.00000000	     -0.00906922	      0.00000000	      4.22445859	     -8.78000374	     -7.30621494	     -4.94384324
      0.27916667	      0.43342324	      5.10443772	      1.42429570	     -0.40154989	      0.98618142	      0.23187497	     15.70250174	     -9.71978722	      1.85733101	    -62.76863193	    -10.86468059	    -13.07585010	     17.31839135	      6.47220742	      4.72167673	      5.55324801	    -17.71145526	      0.00000000	      0.00000000	      0.00000000	      0.00000000	     -0.00887771	      0.00000000	      4.28476598	     -8.84529369	     -7.00123737	     -5.15199619
      0.28333333	      0.66415276	      4.84037840	      1.53081172	     -0.39602337	      0.98752220	      0.23122832	     16.06352252	     -9.39804289	      1.65948432	    -62.53484825	     -9.92132627	    -13.49378056	     15.18770286	      5.69671640	      4.45437136	      5.76094880	    -17.38976254	      0.00000000	      0.00000000	      0.00000000	      0.00000000	     -0.00870297	      0.00000000	      4.33254881	     -9.11319024	     -6.62077181	     -5.52964530
      0.28750000	      0.67463226	      4.64139337	      1.57086382	     -0.39046762	      0.98844127	      0.23065705	     16.70296725	     -9.16444173	      1.54383938	    -62.29752543	     -9.01966170	    -13.85888083	     15.12521644	      5.16889040	      4.25433836	      5.83616791	    -17.09438845	      0.00000000	      0.00000000	      0.00000000	      0.00000000	     -0.00847878	      0.00000000	      4.37329716	     -9.09712288	     -6.35486126	     -5.64630055
      0.29166667	      0.71157520	      4.42541695	      1.62318200	     -0.38496885	      0.98939654	      0.23007059	     17.29118955	     -8.89876054	      1.41975950	    -62.00197781	     -8.16908787	    -14.27298058	     14.97742654	      4.62287710	      4.03609174	      5.95193994	    -16.80516558	      0.00000000	      0.00000000	      0.00000000	      0.00000000	     -0.00826416	      0.00000000	      4.40600146	     -9.12816172	     -6.05884750	     -5.82419107
      0.29583333	      0.73604781	      4.38570652	      1.68699114	     -0.37991888	      0.99038525	      0.22943633	     17.93822453	     -8.86353264	      1.32687787	    -61.65026195	     -8.00448020	    -14.35317213	     14.95994681	      4.21438512	      4.02382339	      6.01571359	    -16.70075732	      0.00000000	      0.00000000	      0.00000000	      0.00000000	     -0.00760249	      0.00000000	      4.47769829	     -9.25332906	     -5.99886110	     -5.85155165
      0.30000000	      0.75129277	      4.04217808	      1.73562935	     -0.37393181	      0.99124168	      0.22893133	     18.42153006	     -8.42682059	      1.15120351	    -61.21457944	     -6.64352764	    -15.06178577	     14.78546728	      3.56625402	      3.64824012	      6.17518315	    -16.22070222	      0.00000000	      0.00000000	      0.00000000	      0.00000000	     -0.00775546	      0.00000000	      4.40621705	     -9.13908689	     -5.53245482	     -6.12614316
      0.30416667	      0.79883598	      3.78538830	      1.83646490	     -0.36841632	      0.99221488	      0.22831246	     18.88703320	     -8.10509883	      0.98694246	    -60.69168461	     -5.87734313	    -15.53749027	     14.50591505	      3.00818412	      3.37792221	      6.29143631	    -15.91823056	      0.00000000	      0.00000000	      0.00000000	      0.00000000	     -0.00751192	      0.00000000	      4.42770876	     -9.18627185	     -5.19399407	     -6.37748138
      0.30833333	      1.12296761	      3.45501134	      2.03311108	     -0.36302942	      0.99365280	      0.22761493	     18.96946577	     -7.69861024	      0.67112798	    -60.04684030	     -5.37918550	    -16.22720345	     12.32904561	      2.17185105	      3.02099141	      6.61271991	    -15.62774094	      0.00000000	      0.00000000	      0.00000000	      0.00000000	     -0.00730720	      0.00000000	      4.49200835	     -9.58231465	     -4.70516020	     -6.97780630
      0.31250000	      1.06414978	      3.27257519	      2.06735099	     -0.35761912	      0.99434119	      0.22715581	     19.58107249	     -7.43739018	      0.59061501	    -59.50612143	     -4.59927107	    -16.48810680	     12.17753891	      1.74397574	      2.82651800	      6.68354737	    -15.33917215	      0.00000000	      0.00000000	      0.00000000	      0.00000000	     -0.00705390	      0.00000000	      4.47018800	     -9.51335154	     -4.47720555	     -7.02958986
      0.31666667	      1.02268504	      3.19407440	      2.10841681	     -0.35218037	      0.99507055	      0.22659462	     20.14549119	     -7.33623944	      0.48525368	    -58.88313527	     -4.20154948	    -16.66724707	     12.10330821	      1.29692930	      2.75563875	      6.76650010	    -15.06225940	      0.00000000	      0.00000000	      0.00000000	      0.00000000	     -0.00654956	      0.00000000	      4.54885904	     -9.45871380	     -4.37482380	     -7.09059359
      0.32083333	      1.02162731	      2.81772955	      2.23434340	     -0.34697138	      0.99578683	      0.22606348	     20.60624310	     -6.81081273	      0.35079509	    -58.20375785	     -3.22468057	    -17.16628632	     11.76260334	      0.85416202	      2.34292377	      6.89960856	    -14.81765349	      0.00000000	      0.00000000	      0.00000000	      0.00000000	     -0.00661667	      0.00000000	      4.45731168	     -9.50695945	     -3.85436990	     -7.34033786
      0.32500000	      0.97654582	      2.77227449	      2.26218117	     -0.34137941	      0.99651725	      0.22563558	     21.09238362	     -6.73845325	      0.22885609	    -57.41773926	     -2.94546240	    -17.33146214	     11.63713999	      0.39799425	      2.29784453	      6.99618363	    -14.53403128	      0.00000000	      0.00000000	      0.00000000	      0.00000000	     -0.00596778	      0.00000000	      4.55374230	     -9.40439551	     -3.82109688	     -7.42683248
